name C:\Users\Nicos\Desktop\Gil_twoSteps\Study2\ExperimentalData\IK_Splined\twoSteps_IK_BSplines_200_meshInts_study2_p02_s_01_lowIK_modROI.mot
datacolumns 38
datarows 10
range 0.43700000 0.44169801
endheader
                time	         pelvis_tilt	         pelvis_list	     pelvis_rotation	           pelvis_tx	           pelvis_ty	           pelvis_tz	       hip_flexion_r	     hip_adduction_r	      hip_rotation_r	        knee_angle_r	       ankle_angle_r	    subtalar_angle_r	         mtp_angle_r	       hip_flexion_l	     hip_adduction_l	      hip_rotation_l	        knee_angle_l	       ankle_angle_l	    subtalar_angle_l	         mtp_angle_l	    lumbar_extension	      lumbar_bending	     lumbar_rotation	          arm_flex_r	           arm_add_r	           arm_rot_r	        elbow_flex_r	           pro_sup_r	        wrist_flex_r	         wrist_dev_r	          arm_flex_l	           arm_add_l	           arm_rot_l	        elbow_flex_l	           pro_sup_l	        wrist_flex_l	         wrist_dev_l	
          0.43700000	        -21.48013604	          1.40854974	        -11.36350031	         -0.86225164	          0.85366293	          0.34102116	         25.49619373	          1.62392329	         10.78412730	        -56.88902479	         18.80749518	        -16.02245137	         12.54466183	         53.38262360	         -3.63642322	        -14.77501873	       -110.56268729	         -5.96129495	        -14.41955613	         10.20742214	        -25.63260489	         -3.42855487	         -6.78051306	         32.74823473	          1.27724402	          9.83594232	         81.56784258	         71.96227298	         -5.49846776	         10.71099354	        -43.70782964	         -9.82066653	        -17.01321317	         37.21901402	         71.14485879	        -10.39647843	         19.42819955	
          0.43733801	        -21.46524443	          1.45925858	        -11.40931691	         -0.86076408	          0.85362154	          0.34111034	         25.35637779	          1.54704042	         10.81218050	        -56.79813644	         18.76907167	        -15.98813643	         12.62388713	         53.61551602	         -3.60853723	        -14.75340243	       -110.65691122	         -5.87887344	        -14.42916187	         10.19996493	        -25.61076199	         -3.52646605	         -6.78271896	         33.04529397	          1.37795387	          9.89408087	         81.68506418	         71.95514229	         -5.50767503	         10.71407397	        -43.98749793	         -9.78389138	        -17.04765568	         37.28848472	         71.29121349	        -10.36288391	         19.47646031	
          0.43840599	        -21.42247574	          1.62361395	        -11.54514368	         -0.85604638	          0.85347770	          0.34137839	         24.91481463	          1.29175970	         10.89336001	        -56.49992028	         18.64783276	        -15.86941247	         12.88000571	         54.35664751	         -3.51303039	        -14.68104707	       -110.93972813	         -5.62796560	        -14.47300017	         10.16055605	        -25.53242615	         -3.83662615	         -6.78254879	         33.96816690	          1.68008674	         10.07241803	         82.07263861	         71.93341329	         -5.53747047	         10.72321197	        -44.87185194	         -9.66916582	        -17.15304681	         37.52995905	         71.75421170	        -10.25396370	         19.62430244	
          0.43918000	        -21.39401488	          1.74517840	        -11.63829364	         -0.85261682	          0.85336572	          0.34156454	         24.59491130	          1.09942744	         10.94777956	        -56.27725001	         18.56006240	        -15.77726832	         13.06905950	         54.89690853	         -3.43943217	        -14.62620621	       -111.13588152	         -5.45175193	        -14.51275715	         10.12261264	        -25.47013420	         -4.06188716	         -6.77819841	         34.62771168	          1.88954253	         10.19849550	         82.36371536	         71.91813957	         -5.55948149	         10.72948248	        -45.51320707	         -9.58688870	        -17.22739596	         37.71797642	         72.09010895	        -10.17338131	         19.72870194	
          0.43918000	        -21.39401488	          1.74517840	        -11.63829364	         -0.85261682	          0.85336572	          0.34156454	         24.59491130	          1.09942744	         10.94777956	        -56.27725001	         18.56006240	        -15.77726832	         13.06905950	         54.89690853	         -3.43943217	        -14.62620621	       -111.13588152	         -5.45175193	        -14.51275715	         10.12261264	        -25.47013420	         -4.06188716	         -6.77819841	         34.62771168	          1.88954253	         10.19849550	         82.36371536	         71.91813957	         -5.55948149	         10.72948248	        -45.51320707	         -9.58688870	        -17.22739596	         37.71797642	         72.09010895	        -10.17338131	         19.72870194	
          0.43951801	        -21.38158600	          1.79826567	        -11.67897229	         -0.85111913	          0.85331681	          0.34164584	         24.45520930	          1.01543582	         10.97154462	        -56.18000976	         18.52173303	        -15.73702891	         13.15161942	         55.13284088	         -3.40729178	        -14.60225717	       -111.22154184	         -5.37479930	        -14.53011906	         10.10604272	        -25.44293126	         -4.16025879	         -6.77629860	         34.91573533	          1.98101202	         10.25355362	         82.49082877	         71.91146952	         -5.56909372	         10.73222082	        -45.79328730	         -9.55095823	        -17.25986429	         37.80008374	         72.23679551	        -10.13819093	         19.77429327	
          0.44058599	        -21.34573730	          1.96920117	        -11.80026278	         -0.84637060	          0.85315171	          0.34189161	         24.01357154	          0.74060342	         11.04065717	        -55.86329873	         18.39968639	        -15.60193054	         13.41715513	         55.88172845	         -3.30007988	        -14.52379596	       -111.47956324	         -5.13883454	        -14.59405517	         10.04490974	        -25.34965893	         -4.47164161	         -6.76483148	         35.81404458	          2.25456936	         10.42653436	         82.90597457	         71.88934181	         -5.60056632	         10.74029843	        -46.67837014	         -9.43842336	        -17.36394905	         38.07488050	         72.69609250	        -10.02445509	         19.91451235	
          0.44136000	        -21.32267783	          2.09581953	        -11.88198726	         -0.84291511	          0.85302300	          0.34206026	         23.69329492	          0.53334783	         11.08564369	        -55.62567613	         18.31042980	        -15.49722299	         13.61359717	         56.42741634	         -3.21754425	        -14.46454744	       -111.65577770	         -4.97394642	        -14.64814578	          9.99310752	        -25.27580776	         -4.69780025	         -6.75185451	         36.45507490	          2.43963653	         10.55106406	         83.21839377	         71.87240560	         -5.62431685	         10.74566213	        -47.31995205	         -9.35771032	        -17.44066321	         38.28716377	         73.02540253	         -9.93984932	         20.01286410	
          0.44136000	        -21.32267783	          2.09581953	        -11.88198726	         -0.84291511	          0.85302300	          0.34206026	         23.69329492	          0.53334783	         11.08564369	        -55.62567613	         18.31042980	        -15.49722299	         13.61359717	         56.42741634	         -3.21754425	        -14.46454744	       -111.65577770	         -4.97394642	        -14.64814578	          9.99310752	        -25.27580776	         -4.69780025	         -6.75185451	         36.45507490	          2.43963653	         10.55106406	         83.21839377	         71.87240560	         -5.62431685	         10.74566213	        -47.31995205	         -9.35771032	        -17.44066321	         38.28716377	         73.02540253	         -9.93984932	         20.01286410	
          0.44169801	        -21.31260774	          2.15111385	        -11.91767640	         -0.84140609	          0.85296679	          0.34213391	         23.55342990	          0.44283917	         11.10528934	        -55.52190617	         18.27145138	        -15.45149713	         13.69938354	         56.66571862	         -3.18150088	        -14.43867357	       -111.73273068	         -4.90193966	        -14.67176718	          9.97048546	        -25.24355690	         -4.79656389	         -6.74618746	         36.73501327	          2.52045549	         10.60544626	         83.35482744	         71.86500954	         -5.63468873	         10.74800446	        -47.60013131	         -9.32246288	        -17.47416433	         38.37986802	         73.16921244	         -9.90290192	         20.05581437	
